<svg width="86" height="76" viewBox="0 0 86 76" fill="none" xmlns="http://www.w3.org/2000/svg">
<path fill-rule="evenodd" clip-rule="evenodd" d="M0 4.75L9.55554 57H76.4445L86 4.75L59.7222 28.5L43 0L26.2778 28.5L0 4.75ZM71.6667 76C74.5333 76 76.4445 74.1 76.4445 71.25V67H9.5L9.55554 71.25C9.55554 74.1 11.4667 76 14.3333 76H71.6667ZM19 62C19 64.2092 17.2091 66 15 66C12.7909 66 11 64.2092 11 62C11 59.7908 12.7909 58 15 58C17.2091 58 19 59.7908 19 62ZM29 66C31.2091 66 33 64.2092 33 62C33 59.7908 31.2091 58 29 58C26.7909 58 25 59.7908 25 62C25 64.2092 26.7909 66 29 66ZM47 62C47 64.2092 45.2092 66 43 66C40.7909 66 39 64.2092 39 62C39 59.7908 40.7909 58 43 58C45.2092 58 47 59.7908 47 62ZM57 66C59.2092 66 61 64.2092 61 62C61 59.7908 59.2092 58 57 58C54.7908 58 53 59.7908 53 62C53 64.2092 54.7908 66 57 66ZM71 66C73.2092 66 75 64.2092 75 62C75 59.7908 73.2092 58 71 58C68.7908 58 67 59.7908 67 62C67 64.2092 68.7908 66 71 66Z" fill="#F4C51F"/>
<path fill-rule="evenodd" clip-rule="evenodd" d="M0 4.75L9.55554 57H76.4445L86 4.75L59.7222 28.5L43 0L26.2778 28.5L0 4.75ZM71.6667 76C74.5333 76 76.4445 74.1 76.4445 71.25V67H9.5L9.55554 71.25C9.55554 74.1 11.4667 76 14.3333 76H71.6667ZM19 62C19 64.2092 17.2091 66 15 66C12.7909 66 11 64.2092 11 62C11 59.7908 12.7909 58 15 58C17.2091 58 19 59.7908 19 62ZM29 66C31.2091 66 33 64.2092 33 62C33 59.7908 31.2091 58 29 58C26.7909 58 25 59.7908 25 62C25 64.2092 26.7909 66 29 66ZM47 62C47 64.2092 45.2092 66 43 66C40.7909 66 39 64.2092 39 62C39 59.7908 40.7909 58 43 58C45.2092 58 47 59.7908 47 62ZM57 66C59.2092 66 61 64.2092 61 62C61 59.7908 59.2092 58 57 58C54.7908 58 53 59.7908 53 62C53 64.2092 54.7908 66 57 66ZM71 66C73.2092 66 75 64.2092 75 62C75 59.7908 73.2092 58 71 58C68.7908 58 67 59.7908 67 62C67 64.2092 68.7908 66 71 66Z" fill="url(#paint0_linear)"/>
<defs>
<linearGradient id="paint0_linear" x1="47.5" y1="18.5" x2="52" y2="73.5" gradientUnits="userSpaceOnUse">
<stop stop-color="#FFE589"/>
<stop offset="0.526042" stop-color="#F3C82D" stop-opacity="0"/>
</linearGradient>
</defs>
</svg>
