<svg width="116" height="76" viewBox="0 0 116 76" fill="none" xmlns="http://www.w3.org/2000/svg">
<circle cx="93.5" cy="47.5" r="22.5" fill="black"/>
<circle cx="93.5" cy="47.5" r="22.5" fill="url(#paint0_linear)"/>
<circle cx="22.5" cy="47.5" r="22.5" fill="white"/>
<circle cx="22.5" cy="47.5" r="22.5" fill="url(#paint1_linear)"/>
<circle cx="86" cy="62" r="4" fill="#F4C51F"/>
<circle cx="72" cy="62" r="4" fill="#F4C51F"/>
<circle cx="58" cy="62" r="4" fill="#F4C51F"/>
<circle cx="44" cy="62" r="4" fill="#F4C51F"/>
<circle cx="30" cy="62" r="4" fill="#F4C51F"/>
<path d="M24.5556 57L15 4.75L41.2778 28.5L58 0L74.7222 28.5L101 4.75L91.4444 57H24.5556ZM91.4444 71.25C91.4444 74.1 89.5333 76 86.6667 76H29.3333C26.4667 76 24.5556 74.1 24.5556 71.25L24.5 67H91.4444V71.25Z" fill="#F4C51F"/>
<path d="M24.5556 57L15 4.75L41.2778 28.5L58 0L74.7222 28.5L101 4.75L91.4444 57H24.5556ZM91.4444 71.25C91.4444 74.1 89.5333 76 86.6667 76H29.3333C26.4667 76 24.5556 74.1 24.5556 71.25L24.5 67H91.4444V71.25Z" fill="url(#paint2_linear)"/>
<defs>
<linearGradient id="paint0_linear" x1="74.5" y1="29" x2="93.5" y2="70" gradientUnits="userSpaceOnUse">
<stop stop-color="#6F6F6F"/>
<stop offset="0.836119" stop-color="white" stop-opacity="0"/>
</linearGradient>
<linearGradient id="paint1_linear" x1="35.5" y1="70" x2="8" y2="17.5" gradientUnits="userSpaceOnUse">
<stop stop-color="#DEDEDE"/>
<stop offset="1" stop-color="white" stop-opacity="0"/>
</linearGradient>
<linearGradient id="paint2_linear" x1="62.5" y1="18.5" x2="67" y2="73.5" gradientUnits="userSpaceOnUse">
<stop stop-color="#FFE589"/>
<stop offset="0.526042" stop-color="#F3C82D" stop-opacity="0"/>
</linearGradient>
</defs>
</svg>
